<?xml version="1.0" encoding="iso-8859-1"?>
<!-- Generator: Adobe Illustrator 19.0.0, SVG Export Plug-In . SVG Version: 6.00 Build 0)  -->
<svg version="1.1" id="Capa_1" xmlns="http://www.w3.org/2000/svg" xmlns:xlink="http://www.w3.org/1999/xlink" x="0px" y="0px"
	 viewBox="0 0 512.023 512.023" style="enable-background:new 0 0 512.023 512.023;" xml:space="preserve">
<g transform="translate(0 -1)">
	<g>
		<g>
			<path d="M477.878,376.49H358.411v-42.667c-0.028-7.477-3.342-14.564-9.062-19.379c68.311-44.669,95.42-131.46,64.678-207.068
				C383.286,31.768,303.304-11.481,223.204,4.192S85.321,90.071,85.345,171.69c-0.209,57.647,28.93,111.438,77.329,142.754
				c-5.72,4.815-9.035,11.902-9.062,19.379v42.667H34.145c-14.138,0-25.6,11.462-25.6,25.6v8.533c0,14.138,11.461,25.6,25.6,25.6
				h17.067v51.2c0,14.138,11.461,25.6,25.6,25.6h358.4c14.138,0,25.6-11.461,25.6-25.6v-51.2h17.067c14.138,0,25.6-11.461,25.6-25.6
				v-8.533C503.478,387.951,492.017,376.49,477.878,376.49z M102.412,171.69C102.353,96.177,157.19,31.822,231.756,19.897
				c74.565-11.925,146.738,32.118,170.232,103.883s-8.66,149.962-75.841,184.442H185.876
				C134.491,282.138,102.2,229.316,102.412,171.69z M341.345,333.823v42.667H170.678v-42.667c0-4.713,3.82-8.533,8.533-8.533h153.6
				C337.524,325.29,341.345,329.11,341.345,333.823z M162.145,393.556h186.701l-93.013,66.432l-99.661-66.432H162.145z
				 M34.145,419.156c-4.713,0-8.533-3.82-8.533-8.533v-8.533c0-4.713,3.82-8.533,8.533-8.533h91.307l38.4,25.6H34.145z
				 M443.745,487.423c0,4.713-3.82,8.533-8.533,8.533h-358.4c-4.713,0-8.533-3.82-8.533-8.533v-51.2h121.173l61.85,41.233
				c2.949,1.968,6.808,1.906,9.694-0.154l57.489-41.079h125.261V487.423z M486.411,410.623c0,4.713-3.82,8.533-8.533,8.533H342.377
				l35.84-25.6h99.661c4.713,0,8.533,3.821,8.533,8.533V410.623z"/>
			<path d="M256.011,52.223c15.956-0.024,31.753,3.168,46.447,9.387c1.054,0.442,2.185,0.671,3.328,0.674
				c4.06,0.002,7.559-2.857,8.366-6.836c0.808-3.979-1.299-7.975-5.038-9.557c-16.801-7.105-34.861-10.756-53.103-10.735
				c-4.713,0-8.533,3.82-8.533,8.533S251.299,52.223,256.011,52.223z"/>
			<path d="M355.049,104.95c13.338,19.699,20.455,42.949,20.429,66.739c0,4.713,3.82,8.533,8.533,8.533s8.533-3.82,8.533-8.533
				c0.025-27.196-8.111-53.775-23.356-76.297c-4.905-7.249-10.488-14.015-16.674-20.207c-3.384-2.978-8.5-2.81-11.682,0.383
				c-3.182,3.193-3.331,8.31-0.341,11.684C345.887,92.683,350.761,98.608,355.049,104.95z"/>
			<path d="M236.854,239.956c31.073-1.012,55.485-26.949,54.613-58.027c0.665-25.804-19.632-47.302-45.431-48.119
				c-21.581,0.655-38.581,18.616-38.05,40.201c-0.44,18.218,13.937,33.362,32.154,33.869c4.713,0,8.533-3.82,8.533-8.533
				c0-4.713-3.82-8.533-8.533-8.533c-8.789-0.509-15.523-8.009-15.087-16.802c-0.537-12.162,8.827-22.485,20.983-23.134
				c16.393,0.788,29.078,14.655,28.407,31.053c0.873,21.654-15.899,39.95-37.547,40.96c-28.264-1.219-50.23-25.047-49.152-53.316
				c0-37.922,28.493-68.779,63.522-68.779c44.962,0,81.544,39.526,81.544,88.107c0,4.713,3.821,8.533,8.533,8.533
				c4.713,0,8.533-3.82,8.533-8.533c0-58.027-44.237-105.173-98.611-105.173c-44.433,0-80.589,38.511-80.589,85.845
				C169.596,207.253,199.179,238.717,236.854,239.956z"/>
		</g>
	</g>
</g>
<g>
</g>
<g>
</g>
<g>
</g>
<g>
</g>
<g>
</g>
<g>
</g>
<g>
</g>
<g>
</g>
<g>
</g>
<g>
</g>
<g>
</g>
<g>
</g>
<g>
</g>
<g>
</g>
<g>
</g>
</svg>
