<svg height="511pt" viewBox="0 0 511 511.99878" width="511pt" xmlns="http://www.w3.org/2000/svg"><path d="m64.59375 501.890625-54.007812-54.007813c0-3.011718 0-4.703124 0-7.714843l19.421874-19.421875 61.722657 61.71875-19.425781 19.425781c-3.011719 0-4.699219 0-7.710938 0zm0 0" fill="#ffe477"/><path d="m141.269531 328.925781 42.277344 42.277344-101.535156 101.539063-42.277344-42.277344zm0 0" fill="#b77062"/><path d="m16.667969 495.808594c11.554687 11.554687 30.289062 11.554687 41.84375 0l-41.84375-41.84375c-11.554688 11.554687-11.554688 30.289062 0 41.84375zm0 0" fill="#c6c5ca"/><path d="m162.40625 350.066406c-35.710938-35.710937-55.378906-83.195312-55.378906-133.699218h46.023437c0 38.214843 14.878907 74.140624 41.898438 101.160156 27.023437 27.019531 62.945312 41.898437 101.160156 41.898437v46.023438c-50.507813 0-97.988281-19.667969-133.703125-55.382813zm0 0" fill="#ffe477"/><path d="m194.949219 317.523438c9.453125 9.457031 20.003906 17.417968 31.355469 23.78125l278.652343-278.648438v-55.136719h-55.136719l-278.652343 278.652344c6.367187 11.351563 14.328125 21.898437 23.78125 31.351563zm0 0" fill="#c6c5ca"/><path d="m30.636719 447.882812v-7.714843l9.398437-9.398438-10.027344-10.023437-19.421874 19.421875v7.714843l54.007812 54.007813h7.710938l6.171874-6.167969zm0 0" fill="#ffb655"/><path d="m69.808594 430.464844 86.496094-86.496094-15.035157-15.039062-101.539062 101.535156 42.277343 42.28125 15.039063-15.039063zm0 0" fill="#895247"/><path d="m36.71875 495.808594c-7.921875-7.921875-10.410156-19.21875-7.46875-29.261719l-12.582031-12.582031c-11.554688 11.554687-11.554688 30.289062 0 41.84375 8.367187 8.367187 20.5 10.675781 30.945312 6.921875-3.976562-1.429688-7.707031-3.734375-10.894531-6.921875zm0 0" fill="#898890"/><path d="m192.484375 350.066406c-35.710937-35.710937-55.378906-83.191406-55.378906-133.699218h-30.078125c0 50.507812 19.667968 97.988281 55.378906 133.699218 35.714844 35.714844 83.195312 55.382813 133.703125 55.382813v-2.363281c-39.078125-6.210938-75.105469-24.496094-103.625-53.019532zm0 0" fill="#ffb655"/><path d="m225.027344 317.523438c-9.453125-9.453126-17.417969-20-23.78125-31.351563l278.652344-278.652344h-30.078126l-278.652343 278.652344c6.367187 11.351563 14.328125 21.898437 23.78125 31.351563 9.457031 9.457031 20.003906 17.417968 31.355469 23.78125l12.019531-12.015626c-4.632813-3.617187-9.074219-7.542968-13.296875-11.765624zm0 0" fill="#898890"/><path d="m205.730469 317.382812 122.363281-122.363281-10.636719-10.632812-122.363281 122.359375c-22.320312-24.882813-34.523438-56.691406-34.523438-90.378906v-7.519532h-61.0625v7.519532c0 39.816406 11.753907 77.824218 33.625 110.0625l-93.402343 93.402343-9.722657-9.722656-26.941406 26.945313v13.941406l3.507813 3.511718c-9.460938 14.390626-7.871094 33.96875 4.777343 46.617188 12.761719 12.765625 32.347657 14.203125 46.621094 4.78125l3.503906 3.503906h13.945313l26.941406-26.945312-9.71875-9.71875 93.398438-93.402344c32.242187 21.867188 70.25 33.625 110.0625 33.625h7.519531v-61.0625h-7.519531c-33.683594 0-65.492188-12.203125-90.375-34.523438zm-183.746094 173.109376c-6.738281-6.738282-8.199219-16.785157-4.382813-24.960938l29.347657 29.351562c-7.949219 3.730469-18.046875 2.523438-24.964844-4.390624zm47.207031 3.878906h-1.484375l-49.601562-49.601563v-1.484375l11.902343-11.90625 51.089844 51.089844zm103.722656-123.164063-90.902343 90.902344-31.644531-31.644531 14.75-14.75 22.78125 22.78125 10.632812-10.632813-22.78125-22.78125 14.75-14.75 22.78125 22.78125 10.636719-10.632812-22.785157-22.785157 14.753907-14.75 22.78125 22.785157 10.632812-10.636719-22.78125-22.78125 14.75-14.75zm115.671876 26.570313c-45.671876-1.847656-88.347657-20.511719-120.863282-53.027344-32.515625-32.511719-51.175781-75.191406-53.027344-120.863281h31.015626c1.828124 37.398437 17.261718 72.296875 43.921874 98.957031 26.660157 26.660156 61.558594 42.09375 98.953126 43.917969zm0 0"/><path d="m446.707031 0-266.023437 266.023438 10.632812 10.632812 261.617188-261.617188h44.503906v44.5l-261.621094 261.621094 10.636719 10.632813 266.023437-266.023438v-65.769531zm0 0"/><g fill="#fff"><path d="m343.128906 179.980469-10.632812-10.632813 107.132812-107.132812 10.632813 10.632812zm114.222656-114.222657-10.632812-10.636718 10.632812-10.632813 10.632813 10.632813zm17.722657-17.722656-10.632813-10.636718 10.632813-10.632813 10.636719 10.632813zm0 0"/><path d="m272.609375 388.90625c-5.183594-.695312-10.382813-1.636719-15.464844-2.792969l3.335938-14.664062c4.640625 1.058593 9.394531 1.914062 14.125 2.550781zm-25.609375-5.425781c-5.015625-1.46875-10.019531-3.183594-14.871094-5.097657l5.519532-13.988281c4.429687 1.746094 8.996093 3.3125 13.570312 4.652344zm-24.5-9.242188c-18.34375-8.5625-34.996094-20.261719-49.5-34.761719l10.632812-10.632812c13.261719 13.257812 28.476563 23.949219 45.230469 31.769531zm0 0"/></g></svg>